<?xml version="1.0" encoding="UTF-8"?>
<svg width="59px" height="21px" viewBox="0 0 59 21" version="1.1" xmlns="http://www.w3.org/2000/svg" xmlns:xlink="http://www.w3.org/1999/xlink">
    <!-- Generator: Sketch 62 (91390) - https://sketch.com -->
    <title>Jira Software-blue Copy</title>
    <desc>Created with Sketch.</desc>
    <defs>
        <linearGradient x1="68.6073833%" y1="40.3276956%" x2="40.339343%" y2="81.6596195%" id="linearGradient-1">
            <stop stop-color="#0052CC" offset="18%"></stop>
            <stop stop-color="#2684FF" offset="100%"></stop>
        </linearGradient>
        <linearGradient x1="31.6488039%" y1="59.1664468%" x2="59.8855877%" y2="17.9899763%" id="linearGradient-2">
            <stop stop-color="#0052CC" offset="18%"></stop>
            <stop stop-color="#2684FF" offset="100%"></stop>
        </linearGradient>
    </defs>
    <g id="Create-Modals" stroke="none" stroke-width="1" fill="none" fill-rule="evenodd">
        <g id="Add-Service" transform="translate(-714.000000, -710.000000)" fill-rule="nonzero">
            <g id="Group" transform="translate(430.000000, 362.000000)">
                <g id="Large" transform="translate(32.000000, 323.000000)">
                    <g id="Jira" transform="translate(193.000000, 0.000000)">
                        <g id="Jira-Software-blue-Copy" transform="translate(59.000000, 25.000000)">
                            <path d="M29.9584488,2.21052632 L32.0526316,2.21052632 L32.0526316,13.6613304 C32.0526316,16.6949389 30.8204482,18.7885561 27.9330144,18.7885561 C27.0791373,18.8024754 26.2294086,18.6579419 25.4210526,18.3612873 L25.4210526,16.1679741 C26.1105907,16.4559673 26.8444537,16.6009358 27.5839839,16.5952429 C29.3529338,16.5952429 29.9637371,15.4558594 29.9637371,13.8122987 L29.9584488,2.21052632 Z" id="Path" fill="#253858"></path>
                            <path d="M35.9210526,2.21395981 C36.3687611,2.1861228 36.808321,2.32856633 37.1257081,2.60433977 C37.4430953,2.88011321 37.6070333,3.26204088 37.5749958,3.65104869 C37.5749958,4.44473097 36.8345002,5.08813758 35.9210526,5.08813758 C35.0076051,5.08813758 34.2671095,4.44473097 34.2671095,3.65104869 C34.2350719,3.26204088 34.3990099,2.88011321 34.7163971,2.60433977 C35.0337843,2.32856633 35.4733442,2.1861228 35.9210526,2.21395981 L35.9210526,2.21395981 Z M34.7087875,6.81373295 L37.0800658,6.81373295 L37.0800658,18.7894737 L34.7087875,18.7894737 L34.7087875,6.81373295 Z" id="Shape" fill="#253858"></path>
                            <path d="M40.8947368,6.81394534 L43.0282749,6.81394534 L43.0282749,8.9191143 C43.7644754,7.50750876 45.0492175,6.50116184 47.5263158,6.64531423 L47.5263158,8.65528822 C44.7316408,8.38330256 43.0282749,9.18294039 43.0282749,11.7178467 L43.0282749,18.7894737 L40.8947368,18.7894737 L40.8947368,6.81394534 Z" id="Path" fill="#253858"></path>
                            <path d="M56.4870885,16.451417 C55.7088508,17.9950658 54.2517248,18.7894737 52.3834023,18.7894737 C49.1545437,18.7894737 47.5263158,16.1485324 47.5263158,12.7105263 C47.5263158,9.41333502 49.2262961,6.63157895 52.6262567,6.63157895 C54.3979894,6.63157895 55.7585255,7.4020749 56.4898482,8.92181174 L56.4898482,6.86538462 L58.5789474,6.86538462 L58.5789474,18.555668 L56.4898482,18.555668 L56.4870885,16.451417 Z M52.9408634,16.9190283 C54.8119456,16.9190283 56.4870885,15.7739119 56.4870885,13.1781377 L56.4870885,12.2322874 C56.4870885,9.63651316 54.9582101,8.49139676 53.1754386,8.49139676 C50.8186477,8.49139676 49.6043761,9.98722166 49.6043761,12.6998988 C49.6154149,15.5161943 50.7800118,16.9190283 52.9436231,16.9190283 L52.9408634,16.9190283 Z" id="Shape" fill="#253858"></path>
                            <path d="M19.6565258,9.9123548 L10.8053365,0.87592397 L9.94736842,0 L9.94736842,0 L3.28454064,6.80227033 L3.28454064,6.80227033 L0.238211063,9.9123548 C-0.0794036876,10.2370205 -0.0794036876,10.7629795 0.238211063,11.0876452 L6.32544003,17.3022703 L9.94736842,21 L16.6101962,14.1977297 L16.7133696,14.092397 L19.6565258,11.0876452 C19.9741405,10.7629795 19.9741405,10.2370205 19.6565258,9.9123548 Z M9.94736842,13.6045407 L6.90646902,10.5 L9.94736842,7.39545935 L12.9882678,10.5 L9.94736842,13.6045407 Z" id="Shape" fill="#2684FF"></path>
                            <path d="M9.94736842,6.98997163 C7.96978203,5.06206752 7.96014398,1.93946851 9.92579354,0 L3.31578947,6.44055302 L6.91340083,9.94736842 L9.94736842,6.98997163 Z" id="Path" fill="url(#linearGradient-1)"></path>
                            <path d="M12.9784076,11.0526316 L9.94736842,13.9993197 C10.9026621,14.9274761 11.4393882,16.1866579 11.4393882,17.4996599 C11.4393882,18.8126618 10.9026621,20.0718436 9.94736842,21 L9.94736842,21 L16.5789474,14.5529717 L12.9784076,11.0526316 Z" id="Path" fill="url(#linearGradient-2)"></path>
                        </g>
                    </g>
                </g>
            </g>
        </g>
    </g>
</svg>